<svg width="59" height="52" viewBox="0 0 59 52" fill="none" xmlns="http://www.w3.org/2000/svg">
<path d="M29.2641 37.9107C28.6017 37.9107 28.0324 37.4373 27.9382 36.7759L25.7605 21.9283L22.73 32.5198C22.5406 33.0872 22.0676 33.4655 21.4042 33.5595C20.8359 33.5595 20.2677 33.1812 20.0783 32.6138L17.9948 26.7507L16.3843 29.8708C16.1007 30.3442 15.7219 30.6274 15.1526 30.6274H1.42002C0.662386 30.6274 0 29.9659 0 29.2094C0 28.4529 0.662386 27.8855 1.42002 27.8855H14.2998L17.0467 22.7788C17.3303 22.3055 17.8043 22.0223 18.3726 22.0223C18.9408 22.0223 19.4138 22.4006 19.6043 22.968L21.3089 27.6963L24.9077 15.1184C25.0971 14.4569 25.6653 14.0787 26.3277 14.0787C26.9901 14.0787 27.4641 14.6461 27.5594 15.2135L30.3053 33.4655L35.4193 28.0746C35.7028 27.7914 36.0816 27.7914 36.4605 27.7914H57.5789C58.3365 27.7914 58.9989 28.4529 58.9989 29.2094C58.9989 29.9659 58.3365 30.6274 57.5789 30.6274H36.9334C36.5546 31.0056 36.1758 31.3839 35.797 31.8573C34.9441 32.7089 34.1865 33.5595 33.3347 34.4101C32.5771 35.2617 31.8194 36.0182 31.0618 36.8688C30.8724 37.0579 30.683 37.3422 30.4936 37.5302C30.1148 37.8134 29.7359 37.9085 29.2619 37.9085L29.2641 37.9107Z" fill="#B9A974"/>
<path d="M46.311 32.804C46.0274 33.1823 45.7428 33.4654 45.4581 33.8437C42.4276 37.6264 31.6313 49.6359 29.4526 52.0006C27.275 49.6359 16.4776 37.6264 13.4471 33.8437C13.1635 33.4654 12.8789 33.1823 12.5942 32.804H15.1518C16.0047 32.804 16.8565 32.4257 17.5199 31.8583L18.0881 33.3714C18.5622 34.7894 19.9822 35.7361 21.4022 35.7361H21.4975C23.0128 35.641 24.3386 34.6964 24.8116 33.1834L25.0952 32.2377L25.8528 37.0601C26.1364 38.7623 27.4633 39.9911 29.2621 40.0862H29.4515C30.4927 40.0862 31.4409 39.7079 32.1032 38.9514L37.9749 32.804H46.311Z" fill="#B9A974"/>
<path d="M54.8342 14.6471C54.7389 18.8081 53.4142 22.4016 51.5201 25.712H36.3674C35.8934 25.712 34.6628 25.712 33.811 26.6577L31.8217 28.7382L29.7382 14.8374C29.4546 13.2292 28.1277 11.9052 26.4241 11.8112H26.2347C24.6242 11.8112 23.2041 12.8509 22.8253 14.3651L20.9312 20.8907C20.363 20.2293 19.5112 19.7559 18.5631 19.7559H18.2795C16.9537 19.7559 15.7231 20.5125 15.1538 21.6473L13.0703 25.6191H7.4822C5.49288 22.3098 4.16811 18.7152 4.07286 14.6493C3.88346 -0.104236 20.836 -6.06142 29.4535 7.93343C38.071 -6.0625 55.0236 -0.105316 54.8342 14.6482V14.6471Z" fill="#B9A974"/>
</svg>
