<svg width="52" height="52" viewBox="0 0 52 52" fill="none" xmlns="http://www.w3.org/2000/svg">
<path d="M25.9998 50.7747C26.4956 50.7719 26.9729 50.589 27.3425 50.2594C27.7121 49.9298 27.9489 49.4758 28.0074 48.9837L37.0182 42.919C37.3906 42.6674 37.489 42.1624 37.2374 41.79C36.9857 41.4177 36.4806 41.3193 36.1082 41.5709L27.4874 47.3756C27.4419 47.3236 27.3926 47.2744 27.3416 47.2289C26.9748 46.8975 26.4975 46.7136 26.0035 46.7136C25.5095 46.7136 25.0313 46.8975 24.6645 47.2289L19.9074 44.4055C19.7217 44.2653 19.4859 44.2105 19.2574 44.256C19.029 44.3015 18.8312 44.4426 18.7142 44.6432C18.5972 44.8437 18.5712 45.0861 18.6446 45.3061C18.7179 45.5271 18.8814 45.7063 19.0949 45.7982L23.9699 48.7061V48.7423C23.9699 49.2808 24.1835 49.798 24.5651 50.1786C24.9468 50.5593 25.4612 50.7747 25.9998 50.7747Z" fill="#B9A974"/>
<path d="M5.6875 24.3715H12.1875V30.8706H5.6875V24.3715Z" fill="#B9A974"/>
<path d="M39.8115 24.3715H46.3115V30.8706H39.8115V24.3715Z" fill="#B9A974"/>
<path d="M17.0625 12.9982H23.5625V19.4974H17.0625V12.9982Z" fill="#B9A974"/>
<path d="M28.4375 12.9982H34.9375V19.4974H28.4375V12.9982Z" fill="#B9A974"/>
<path d="M39.8115 12.9982H46.3115V19.4974H39.8115V12.9982Z" fill="#B9A974"/>
<path d="M5.6875 12.9984H12.1875V19.4976H5.6875V12.9984Z" fill="#B9A974"/>
<path d="M6.09287 51.993C6.3083 51.993 6.51537 51.9076 6.66766 51.7553C6.81994 51.603 6.90537 51.396 6.90537 51.1806C6.90723 50.0915 6.99823 49.0052 7.17744 47.931H9.34287C9.79137 47.931 10.1554 47.567 10.1554 47.1186C10.1554 46.6702 9.79137 46.3062 9.34287 46.3062H7.5108C8.44216 42.6212 10.4256 39.2861 13.2187 36.7078L14.437 37.926C14.7546 38.2435 15.269 38.2435 15.5866 37.926C15.9042 37.6084 15.9042 37.0941 15.5866 36.7765L14.4454 35.6355C17.5282 33.2382 21.2843 31.8631 25.1871 31.7035V34.1202C25.1871 34.5687 25.5511 34.9326 25.9996 34.9326C26.4481 34.9326 26.8121 34.5687 26.8121 34.1202V31.7035C31.2033 31.8966 35.3865 33.6207 38.6384 36.5778L37.6151 37.601C37.2975 37.9185 37.2975 38.4329 37.6151 38.7504C37.9327 39.068 38.4471 39.068 38.7647 38.7504L39.813 37.7226C42.0713 40.1431 43.6805 43.0956 44.4893 46.3062H42.6572C42.2087 46.3062 41.8447 46.6702 41.8447 47.1186C41.8447 47.567 42.2087 47.931 42.6572 47.931H44.8227C45.0019 49.0052 45.0929 50.0915 45.0947 51.1806C45.0947 51.629 45.4587 51.993 45.9072 51.993C46.3557 51.993 46.7197 51.629 46.7197 51.1806C46.7253 48.3748 46.1747 45.5959 45.1012 43.0037C44.0278 40.4114 42.4511 38.0578 40.463 36.0774C40.3943 36.0087 40.3451 35.9595 40.2597 35.8824C36.4209 32.4054 31.5209 30.0582 26.0005 30.0582C14.5772 30.0582 5.28223 39.535 5.28223 51.1806C5.28223 51.396 5.36766 51.603 5.51994 51.7553C5.67223 51.9076 5.8793 51.993 6.09473 51.993H6.09287Z" fill="#B9A974"/>
<path d="M46.3111 35.7449H42.3906C44.0026 37.5192 45.3258 39.5348 46.3111 41.7204V35.7449Z" fill="#B9A974"/>
<path d="M17.0625 24.3715V30.3386C19.1249 29.4167 21.3172 28.8215 23.5625 28.5718V24.3715H17.0625Z" fill="#B9A974"/>
<path d="M28.4375 24.3715V28.5718C30.6828 28.8215 32.8751 29.4176 34.9375 30.3386V24.3715H28.4375Z" fill="#B9A974"/>
<path d="M47.9375 1.6248H46.3125V0.812398C46.3125 0.363955 45.9485 0 45.5 0C45.0515 0 44.6875 0.363955 44.6875 0.812398V1.6248H41.4375V0.812398C41.4375 0.363955 41.0735 0 40.625 0C40.1765 0 39.8125 0.363955 39.8125 0.812398V1.6248H36.5625V0.812398C36.5625 0.363955 36.1985 0 35.75 0C35.3015 0 34.9375 0.363955 34.9375 0.812398V1.6248H31.6875V0.812398C31.6875 0.363955 31.3235 0 30.875 0C30.4265 0 30.0625 0.363955 30.0625 0.812398V1.6248H26.8125V0.812398C26.8125 0.363955 26.4485 0 26 0C25.5515 0 25.1875 0.363955 25.1875 0.812398V1.6248H21.9375V0.812398C21.9375 0.363955 21.5735 0 21.125 0C20.6765 0 20.3125 0.363955 20.3125 0.812398V1.6248H17.0625V0.812398C17.0625 0.363955 16.6985 0 16.25 0C15.8015 0 15.4375 0.363955 15.4375 0.812398V1.6248H12.1875V0.812398C12.1875 0.363955 11.8235 0 11.375 0C10.9265 0 10.5625 0.363955 10.5625 0.812398V1.6248H7.3125V0.812398C7.3125 0.363955 6.9485 0 6.5 0C6.0515 0 5.6875 0.363955 5.6875 0.812398V1.6248H4.0625C2.98536 1.6248 1.95186 2.05281 1.1895 2.81415C0.428071 3.57641 0 4.60978 0 5.68679V51.1811C0 51.3965 0.0854286 51.6036 0.237714 51.7558C0.39 51.9081 0.597071 51.9935 0.8125 51.9935H3.79879C3.70593 51.7326 3.65764 51.4578 3.65671 51.1811C3.65579 48.6232 4.08107 46.0839 4.91586 43.6662C4.65864 43.5278 4.44414 43.3227 4.29371 43.0729C4.14421 42.8222 4.06343 42.5363 4.0625 42.2447V35.7455C4.0625 35.3147 4.23336 34.9016 4.53793 34.5961C4.8425 34.2906 5.25571 34.1207 5.6875 34.1207H11.245C12.6379 32.8655 14.183 31.7903 15.8433 30.9194L15.4366 31.1265C15.4301 31.041 15.4301 30.9556 15.4366 30.8702V24.371C15.4366 23.9402 15.6074 23.5271 15.912 23.2216C16.2166 22.9161 16.6298 22.7462 17.0616 22.7462H23.5616C23.9924 22.7462 24.4056 22.9171 24.7111 23.2216C25.0166 23.5261 25.1866 23.9393 25.1866 24.371V28.433H25.1624H26C26.2804 28.433 26.5609 28.433 26.8366 28.4534H26.8125V24.372C26.8125 23.9412 26.9834 23.528 27.2879 23.2225C27.5925 22.9171 28.0057 22.7472 28.4375 22.7472H34.9375C35.3684 22.7472 35.7816 22.918 36.0871 23.2225C36.3926 23.5271 36.5625 23.9402 36.5625 24.372V30.8711C36.5606 30.9575 36.5523 31.042 36.5384 31.1274L36.1316 30.9204C37.8012 31.7894 39.3538 32.8645 40.755 34.1217H46.3125C46.7434 34.1217 47.1566 34.2925 47.4621 34.597C47.7676 34.9016 47.9375 35.3147 47.9375 35.7465V42.2457C47.9356 42.5372 47.8558 42.8232 47.7063 43.0738C47.5559 43.3236 47.3414 43.5288 47.0841 43.6671C47.9189 46.0848 48.3442 48.6241 48.3433 51.182C48.3424 51.4587 48.2941 51.7335 48.2012 51.9944H51.1875C51.6341 51.9944 52 52.0799 52 51.6286V5.68679C52 4.60978 51.5719 3.57641 50.8105 2.81415C50.0481 2.05281 49.0146 1.6248 47.9375 1.6248ZM13.8125 30.8711C13.8125 31.3019 13.6416 31.7151 13.3371 32.0206C13.0325 32.326 12.6193 32.4959 12.1875 32.4959H5.6875C5.25664 32.4959 4.84343 32.3251 4.53793 32.0206C4.23243 31.716 4.0625 31.3029 4.0625 30.8711V24.372C4.0625 23.9412 4.23336 23.528 4.53793 23.2225C4.8425 22.9171 5.25664 22.7472 5.6875 22.7472H12.1875C12.6184 22.7472 13.0316 22.918 13.3371 23.2225C13.6426 23.5271 13.8125 23.9402 13.8125 24.372V30.8711ZM13.8125 19.4976C13.8125 19.9284 13.6416 20.3415 13.3371 20.647C13.0325 20.9525 12.6193 21.1224 12.1875 21.1224H5.6875C5.25664 21.1224 4.84343 20.9515 4.53793 20.647C4.23243 20.3425 4.0625 19.9293 4.0625 19.4976V12.9984C4.0625 12.5676 4.23336 12.1544 4.53793 11.8489C4.8425 11.5435 5.25571 11.3736 5.6875 11.3736H12.1875C12.6184 11.3736 13.0316 11.5444 13.3371 11.8489C13.6416 12.1535 13.8125 12.5666 13.8125 12.9984V19.4976ZM25.1875 19.4976C25.1875 19.9284 25.0166 20.3415 24.7121 20.647C24.4075 20.9525 23.9943 21.1224 23.5625 21.1224H17.0625C16.6316 21.1224 16.2184 20.9515 15.9129 20.647C15.6074 20.3425 15.4375 19.9293 15.4375 19.4976V12.9984C15.4375 12.5676 15.6084 12.1544 15.9129 11.8489C16.2175 11.5435 16.6307 11.3736 17.0625 11.3736H23.5625C23.9934 11.3736 24.4066 11.5444 24.7121 11.8489C25.0166 12.1535 25.1875 12.5666 25.1875 12.9984V19.4976ZM36.5625 19.4976C36.5625 19.9284 36.3916 20.3415 36.0871 20.647C35.7825 20.9525 35.3693 21.1224 34.9375 21.1224H28.4375C28.0066 21.1224 27.5934 20.9515 27.2879 20.647C26.9824 20.3425 26.8125 19.9293 26.8125 19.4976V12.9984C26.8125 12.5676 26.9834 12.1544 27.2879 11.8489C27.5925 11.5435 28.0057 11.3736 28.4375 11.3736H34.9375C35.3684 11.3736 35.7816 11.5444 36.0871 11.8489C36.3916 12.1535 36.5625 12.5666 36.5625 12.9984V19.4976ZM47.9375 30.8711C47.9375 31.3019 47.7666 31.7151 47.4621 32.0206C47.1575 32.326 46.7443 32.4959 46.3125 32.4959H39.8125C39.3816 32.4959 38.9684 32.3251 38.6629 32.0206C38.3574 31.716 38.1875 31.3029 38.1875 30.8711V24.372C38.1875 23.9412 38.3584 23.528 38.6629 23.2225C38.9675 22.9171 39.3807 22.7472 39.8125 22.7472H46.3125C46.7434 22.7472 47.1566 22.918 47.4621 23.2225C47.7676 23.5271 47.9375 23.9402 47.9375 24.372V30.8711ZM47.9375 19.4976C47.9375 19.9284 47.7666 20.3415 47.4621 20.647C47.1575 20.9525 46.7443 21.1224 46.3125 21.1224H39.8125C39.3816 21.1224 38.9684 20.9515 38.6629 20.647C38.3574 20.3425 38.1875 19.9293 38.1875 19.4976V12.9984C38.1875 12.5676 38.3584 12.1544 38.6629 11.8489C38.9675 11.5435 39.3807 11.3736 39.8125 11.3736H46.3125C46.7434 11.3736 47.1566 11.5444 47.4621 11.8489C47.7666 12.1535 47.9375 12.5666 47.9375 12.9984V19.4976ZM50.375 7.31159H1.625V5.68679C1.625 5.04058 1.88221 4.42038 2.33907 3.96358C2.79593 3.50678 3.41621 3.24959 4.0625 3.24959H5.6875V4.06199C5.6875 4.51044 6.0515 4.87439 6.5 4.87439C6.9485 4.87439 7.3125 4.51044 7.3125 4.06199V3.24959H10.5625V4.06199C10.5625 4.51044 10.9265 4.87439 11.375 4.87439C11.8235 4.87439 12.1875 4.51044 12.1875 4.06199V3.24959H15.4375V4.06199C15.4375 4.51044 15.8015 4.87439 16.25 4.87439C16.6985 4.87439 17.0625 4.51044 17.0625 4.06199V3.24959H20.3125V4.06199C20.3125 4.51044 20.6765 4.87439 21.125 4.87439C21.5735 4.87439 21.9375 4.51044 21.9375 4.06199V3.24959H25.1875V4.06199C25.1875 4.51044 25.5515 4.87439 26 4.87439C26.4485 4.87439 26.8125 4.51044 26.8125 4.06199V3.24959H30.0625V4.06199C30.0625 4.51044 30.4265 4.87439 30.875 4.87439C31.3235 4.87439 31.6875 4.51044 31.6875 4.06199V3.24959H34.9375V4.06199C34.9375 4.51044 35.3015 4.87439 35.75 4.87439C36.1985 4.87439 36.5625 4.51044 36.5625 4.06199V3.24959H39.8125V4.06199C39.8125 4.51044 40.1765 4.87439 40.625 4.87439C41.0735 4.87439 41.4375 4.51044 41.4375 4.06199V3.24959H44.6875V4.06199C44.6875 4.51044 45.0515 4.87439 45.5 4.87439C45.9485 4.87439 46.3125 4.51044 46.3125 4.06199V3.24959H47.9375C48.5838 3.24959 49.2041 3.50678 49.6609 3.96358C50.1178 4.42038 50.375 5.04058 50.375 5.68679V7.31159Z" fill="#B9A974"/>
<path d="M5.6875 41.7204V41.7566C6.669 39.559 7.99221 37.5303 9.60793 35.7449H5.6875V41.7204Z" fill="#B9A974"/>
</svg>
