<svg width="90" height="52" viewBox="0 0 90 52" fill="none" xmlns="http://www.w3.org/2000/svg">
<path d="M67.3388 30.1977L65.639 28.1369C59.9733 21.7672 51.8525 17.1772 49.1141 15.7721L47.6977 18.1139C46.659 19.8001 44.4871 20.6431 42.5041 20.0811H42.4097C40.049 19.3317 38.6325 16.8962 39.1991 14.5544C39.6713 12.3999 40.5211 10.3391 41.6542 8.46567L39.1991 8.09098C37.4994 7.80996 35.7053 8.18465 34.1944 9.02771L32.778 9.77709C30.9838 10.7138 28.9064 10.8075 27.1123 10.0581L24.0906 8.84036L12.5703 26.5445L16.8196 29.3547L19.0859 27.1065C19.9357 26.2635 21.0689 25.7951 22.2964 25.7951C23.524 25.7951 24.6571 26.2635 25.507 27.1065C26.2624 27.8559 26.7346 28.7926 26.829 29.9167C28.3398 29.542 29.9451 29.9167 31.1727 31.0408C32.0226 31.8838 32.4947 33.0079 32.4947 34.2256C32.4947 34.6003 32.4003 34.975 32.3058 35.3497C33.3446 35.4434 34.2888 35.9117 35.0443 36.6611C36.1774 37.7852 36.5551 39.4713 36.1774 40.9701C37.2161 41.0637 38.1604 41.5321 38.9158 42.2815C39.7657 43.1245 40.2378 44.2486 40.2378 45.4663C40.2378 46.4967 39.8601 47.5271 39.1991 48.2765L41.5598 51.0867C42.7874 52.3044 44.8648 52.3044 46.0924 51.0867C46.659 50.5247 47.0367 49.6816 47.0367 48.8386C47.0367 47.9955 46.7534 47.2461 46.1868 46.6841L45.2425 45.7474C44.7704 45.279 44.7704 44.5296 45.2425 44.1549C45.7147 43.6866 46.4701 43.6866 46.8478 44.1549L48.5475 45.841C49.7751 47.0588 51.8525 47.0588 53.1745 45.841L53.2689 45.7474C54.4021 44.5296 54.4021 42.5625 53.1745 41.3447L51.4748 39.284C51.0027 38.8156 51.0027 38.0662 51.4748 37.6915C51.9469 37.2232 52.7024 37.2232 53.0801 37.6915L55.9129 40.5017C57.1405 41.7194 59.3123 41.7194 60.5399 40.5017C61.1065 39.9397 61.4842 39.0966 61.4842 38.2536C61.4842 37.4105 61.2009 36.6611 60.6343 36.0054L57.6126 33.1016C57.4238 32.9142 57.2349 32.5395 57.2349 32.2585C57.2349 31.9775 57.3294 31.6965 57.6126 31.4155C58.0848 30.9471 58.8402 30.9471 59.2179 31.4155L62.9006 35.0687C63.5616 35.7244 64.5059 36.0991 65.5446 36.0991C66.3945 36.0991 67.2443 35.7244 67.8109 35.1624C68.3775 34.6003 68.6608 33.7573 68.6608 33.0079C68.6608 32.6332 68.5663 32.1648 68.4719 31.7901C68.0942 31.2298 67.7165 30.7614 67.3388 30.1977Z" fill="#B9A974"/>
<path d="M53.8355 8.18463L49.6807 6.77954C47.6033 6.12383 45.337 6.87321 44.1094 8.65299L43.9206 8.93401C42.693 10.7138 41.8431 12.7746 41.371 14.9291C41.0877 16.1468 41.8431 17.3645 43.0707 17.8329C44.015 18.1139 45.1481 17.7392 45.7147 16.8025L47.7921 13.6176C47.981 13.2429 48.3587 13.0556 48.7364 13.0556C48.9253 13.0556 49.1141 13.0556 49.2085 13.1493C49.8695 13.4303 64.0338 20.4557 70.5494 30.666L77.3482 26.8255L65.7335 8.83866C61.7675 9.68172 57.7071 9.49437 53.8355 8.18463Z" fill="#B9A974"/>
<path d="M37.4045 43.8739C37.0268 43.4992 36.4602 43.2182 35.7992 43.2182C35.2327 43.2182 34.6661 43.4055 34.194 43.8739L31.0778 46.9651C30.228 47.8082 30.228 49.2132 31.0778 50.0563C31.9277 50.8994 33.3441 50.8994 34.194 50.0563L37.3101 46.9651C37.6878 46.5904 37.9711 46.0284 37.9711 45.3727C38.0655 44.8106 37.7822 44.2486 37.4045 43.8739Z" fill="#B9A974"/>
<path d="M33.4384 38.2535C33.0607 37.8789 32.4942 37.5978 31.8332 37.5978C31.2666 37.5978 30.7 37.7852 30.2279 38.2535L26.3563 42.0941C25.9786 42.4688 25.6953 43.0309 25.6953 43.6866C25.6953 44.2486 25.8842 44.8106 26.3563 45.279C27.2062 46.122 28.6226 46.122 29.4724 45.279L33.344 41.4384C34.2883 40.5017 34.2883 39.0966 33.4384 38.2535Z" fill="#B9A974"/>
<path d="M30.1339 34.2256C30.1339 33.6636 29.945 33.1015 29.4729 32.6332C29.0007 32.1648 28.4342 31.9775 27.8676 31.9775C27.301 31.9775 26.7344 32.1648 26.2623 32.6332L21.5409 37.3168C21.1632 37.6915 20.8799 38.2535 20.8799 38.9093C20.8799 39.4713 21.0687 40.0333 21.5409 40.5017C22.3907 41.3447 23.8072 41.3447 24.657 40.5017L29.3784 35.8181C29.8506 35.4434 30.1339 34.8813 30.1339 34.2256Z" fill="#B9A974"/>
<path d="M23.8066 28.7926C23.4289 28.4179 22.8623 28.1369 22.2013 28.1369C21.5403 28.1369 21.0682 28.3242 20.596 28.7926L16.7245 32.6332C16.3468 33.0079 16.0635 33.5699 16.0635 34.2256C16.0635 34.7877 16.2523 35.3497 16.7245 35.8181C17.5743 36.6611 18.9908 36.6611 19.8406 35.8181L23.7122 31.9775C24.7509 31.0408 24.7509 29.6357 23.8066 28.7926Z" fill="#B9A974"/>
<path d="M22.2021 3.6883L16.8197 0.316086C15.8754 -0.24595 14.6479 0.035068 14.0813 0.878121L0.294763 22.2355C-0.271807 23.1722 0.0114783 24.3899 0.861333 24.952L6.24375 28.3242C6.71589 28.6052 7.18803 28.6989 7.7546 28.6052C8.22675 28.5115 8.69889 28.2305 8.98217 27.7622L22.6743 6.4048C23.3353 5.56175 23.1464 4.34401 22.2021 3.6883ZM8.32117 23.2659C7.66018 24.2026 6.33818 24.4836 5.3939 23.9216C4.44961 23.2659 4.16633 21.9545 4.7329 21.0177C5.3939 20.081 6.71589 19.8 7.66018 20.362C8.69889 21.0177 8.98217 22.2355 8.32117 23.2659Z" fill="#B9A974"/>
<path d="M89.4358 22.2355L75.6492 0.878181C75.3659 0.409818 74.8938 0.1288 74.4216 0.0351272C73.9495 -0.0585454 73.3829 0.0351272 72.9108 0.316145L67.5284 3.68836C66.5841 4.25039 66.3008 5.46814 66.9618 6.40486L80.6539 27.7622C81.2205 28.6989 82.4481 28.98 83.3923 28.3243L88.7748 24.952C89.719 24.39 90.0023 23.1723 89.4358 22.2355ZM84.3366 23.9216C83.3923 24.5773 82.0703 24.2963 81.4093 23.2659C80.7483 22.3292 81.0316 21.0178 82.0703 20.3621C83.0146 19.7064 84.3366 19.9874 84.9976 21.0178C85.5642 21.9545 85.2809 23.2659 84.3366 23.9216Z" fill="#B9A974"/>
</svg>
