<svg width="51" height="52" viewBox="0 0 51 52" fill="none" xmlns="http://www.w3.org/2000/svg">
<path d="M11.3485 41.3026C8.06951 41.3347 5.31534 38.6312 5.30481 35.3525C5.28374 32.0738 7.99673 29.3381 11.2862 29.3274C14.638 29.306 17.3615 31.9891 17.3615 35.3204C17.35 38.6195 14.6791 41.2812 11.3485 41.3026Z" fill="#B9A974" stroke="#B9A974" stroke-width="1.0938" stroke-miterlimit="10.938"/>
<path d="M11.3276 42.558C6.76062 42.558 2.74907 44.9531 0.402857 48.5938C-0.528925 50.042 0.50724 51.9465 2.23578 51.9465H20.4194C22.148 51.9465 23.1851 50.041 22.2523 48.5938C19.9061 44.9638 15.884 42.558 11.3276 42.558Z" fill="#B9A974" stroke="#B9A974" stroke-width="1.0938" stroke-miterlimit="10.938"/>
<path d="M39.6932 41.3026C36.4142 41.3347 33.6601 38.6312 33.6495 35.3525C33.6285 32.0738 36.3415 29.3381 39.6309 29.3274C42.9827 29.306 45.7062 31.9891 45.7062 35.3204C45.7052 38.6195 43.0344 41.2812 39.6932 41.3026Z" fill="#B9A974" stroke="#B9A974" stroke-width="1.0938" stroke-miterlimit="10.938"/>
<path d="M39.6713 42.558C35.1044 42.558 31.0928 44.9531 28.7466 48.5938C27.8148 50.042 28.851 51.9465 30.5795 51.9465H48.7632C50.4917 51.9465 51.5288 50.041 50.5961 48.5938C48.2499 44.9638 44.2383 42.558 39.6713 42.558Z" fill="#B9A974" stroke="#B9A974" stroke-width="1.0938" stroke-miterlimit="10.938"/>
<path d="M8.30078 8.73933V7.57928C8.53157 7.11117 8.67809 6.62165 8.9922 6.18468C10.0715 4.6626 11.8517 3.78964 14.2812 3.57651C14.7735 3.53369 15.077 3.43831 15.2552 3.05487C15.6641 2.19262 16.4072 1.43742 17.5276 0.968334C18.5025 0.564456 19.6229 0.319209 20.6811 0H22.3675C23.8021 0.213131 25.1428 0.543045 26.222 1.26711C27.3951 0.72406 28.6104 0.394146 29.9932 0.351325C33.3976 0.245246 36.4764 1.91623 36.9581 4.24704C37.052 4.71515 37.3038 4.84264 37.8698 4.9711C39.5141 5.34384 40.8126 6.05719 41.5988 7.1209C41.9972 7.65324 42.206 8.25954 42.5 8.83471V9.99476C42.1964 10.8463 41.798 11.655 40.9812 12.3577C40.8768 12.4531 40.9601 12.6876 41.0338 12.8365C42.1236 14.923 40.9601 17.2646 38.2165 18.4139C36.0168 19.3404 33.7548 19.3501 31.3981 18.5628C30.2987 19.4679 28.7904 19.9146 27.1557 20.191H25.4693C25.3649 20.1589 25.2596 20.1267 25.1447 20.116C23.4478 19.9243 22.0544 19.3599 21.0288 18.4236C20.6409 18.0723 20.3268 18.0509 19.7723 18.158C16.7136 18.7438 13.5295 17.7852 12.0212 15.8593C11.1095 14.6885 11.0368 13.4642 11.4974 12.2506C10.9314 11.8779 10.3769 11.5587 9.88472 11.186C8.98166 10.4843 8.59382 9.62202 8.30078 8.73933ZM34.5803 18.0957C34.6014 18.0529 34.633 18.01 34.654 17.9575C38.362 17.9575 40.8758 15.3279 39.3254 13.0185C38.9481 12.454 39.0218 12.1027 39.6079 11.6453C42.1322 9.64441 40.5397 6.47178 36.7695 5.94041C35.513 5.7594 35.513 5.7594 35.4182 4.86502C35.2612 3.43831 34.2557 2.37461 32.3595 1.79945C30.5161 1.23499 28.7464 1.43742 27.1327 2.26755C26.1799 2.76778 26.0956 2.75707 25.206 2.17218C23.7609 1.22526 22.0534 0.905076 20.1468 1.30993C18.2296 1.71478 17.0153 2.61888 16.6169 4.00277C16.4599 4.53511 16.2396 4.6626 15.4227 4.6626C12.8773 4.65189 10.7935 5.67375 10.1749 7.24936C9.54667 8.84638 10.5522 10.4317 12.7624 11.3154C13.4433 11.5811 13.5582 11.8049 13.2862 12.3158C12.5115 13.7844 12.9721 15.2218 14.5331 16.2223C16.1046 17.2227 18.22 17.4358 20.2732 16.7974C21.0173 16.5629 21.4042 16.6485 21.792 17.1166C23.7504 19.4796 27.8883 19.7034 30.3916 17.5954C30.947 17.1273 31.1558 17.138 31.942 17.393C32.7886 17.6801 33.7002 17.8718 34.5803 18.0957Z" fill="#B9A974"/>
<path d="M17.9253 23.8541C16.8259 23.8541 15.9248 22.9597 15.9248 21.8746C15.9248 20.7895 16.8154 19.8951 17.9253 19.8951C19.0352 19.8951 19.9258 20.7895 19.9258 21.8746C19.9258 22.9597 19.0247 23.8541 17.9253 23.8541ZM17.9253 20.7671C17.3182 20.7671 16.8259 21.2566 16.8259 21.8639C16.8259 22.4712 17.3182 22.9607 17.9253 22.9607C18.5325 22.9607 19.0247 22.4712 19.0247 21.8639C19.0247 21.2566 18.5325 20.7671 17.9253 20.7671Z" fill="#B9A974"/>
<path d="M15.7996 28.0369C15.0354 28.0369 14.4062 27.4199 14.4062 26.653C14.4062 25.8861 15.0345 25.2691 15.7996 25.2691C16.5648 25.2691 17.193 25.8861 17.193 26.653C17.1815 27.4199 16.5638 28.0369 15.7996 28.0369ZM15.7996 25.9932C15.4328 25.9932 15.1293 26.291 15.1293 26.6637C15.1293 27.0364 15.4328 27.3342 15.7996 27.3342C16.1664 27.3342 16.47 27.0364 16.47 26.6637C16.47 26.291 16.1654 25.9932 15.7996 25.9932Z" fill="#B9A974"/>
<path d="M33.9934 23.9602C33.5012 23.9602 33.03 23.7791 32.6632 23.4492C32.2649 23.0979 32.035 22.6084 32.0034 22.076C31.9718 21.5437 32.1605 21.0328 32.5167 20.6386C32.873 20.2445 33.3652 20.0109 33.8995 19.9788C34.4339 19.9467 34.9472 20.1277 35.3446 20.4897C35.743 20.8411 35.9728 21.3306 36.0044 21.8629C36.036 22.3953 35.8474 22.9062 35.4911 23.3003C35.1349 23.6945 34.6427 23.928 34.1083 23.9602H33.9934ZM34.0039 20.8839H33.9407C33.6477 20.8946 33.3748 21.0221 33.1861 21.2459C32.9869 21.459 32.8931 21.7461 32.9036 22.0332C32.9141 22.3203 33.0501 22.5977 33.2704 22.7894C33.4906 22.9811 33.7731 23.0872 34.0662 23.0658C34.3592 23.0551 34.6321 22.9276 34.8208 22.7038C35.02 22.4906 35.1138 22.2035 35.1033 21.9164C35.0928 21.6293 34.9568 21.352 34.7365 21.1603C34.5268 20.9802 34.2759 20.8839 34.0039 20.8839Z" fill="#B9A974"/>
<path d="M36.1613 28.144C35.8156 28.144 35.491 28.0165 35.2295 27.7927C34.6636 27.2817 34.6119 26.4088 35.1252 25.8443C35.3761 25.5679 35.7112 25.4083 36.0885 25.3869C36.4553 25.3655 36.8116 25.493 37.0941 25.7382C37.66 26.2492 37.7117 27.1221 37.1984 27.6866C36.9475 27.963 36.6124 28.1226 36.2351 28.144H36.1613ZM36.1613 26.0896C35.9727 26.0896 35.7945 26.1645 35.6586 26.3134C35.4077 26.5898 35.4278 27.016 35.7112 27.2603C35.9832 27.5056 36.4132 27.4841 36.6641 27.2068C36.915 26.9294 36.8949 26.5041 36.6114 26.2599C36.486 26.1431 36.3184 26.0896 36.1613 26.0896Z" fill="#B9A974"/>
</svg>
