<svg width="23" height="23" viewBox="0 0 23 23" fill="none" xmlns="http://www.w3.org/2000/svg">
<g clip-path="url(#clip0_66_3130)">
<path d="M11.4987 5.6709C9.95227 5.6709 8.46921 6.2852 7.37574 7.37867C6.28227 8.47214 5.66797 9.9552 5.66797 11.5016C5.66797 13.048 6.28227 14.5311 7.37574 15.6245C8.46921 16.718 9.95227 17.3323 11.4987 17.3323C13.0451 17.3323 14.5281 16.718 15.6216 15.6245C16.7151 14.5311 17.3294 13.048 17.3294 11.5016C17.3294 9.9552 16.7151 8.47214 15.6216 7.37867C14.5281 6.2852 13.0451 5.6709 11.4987 5.6709ZM11.4987 15.2883C10.494 15.2883 9.53057 14.8892 8.82019 14.1788C8.10982 13.4684 7.71073 12.505 7.71073 11.5003C7.71073 10.4957 8.10982 9.53224 8.82019 8.82186C9.53057 8.11149 10.494 7.7124 11.4987 7.7124C12.5033 7.7124 13.4668 8.11149 14.1771 8.82186C14.8875 9.53224 15.2866 10.4957 15.2866 11.5003C15.2866 12.505 14.8875 13.4684 14.1771 14.1788C13.4668 14.8892 12.5033 15.2883 11.4987 15.2883Z" fill="#B9A974"/>
<path d="M17.5605 6.81532C18.3112 6.81532 18.9198 6.20673 18.9198 5.456C18.9198 4.70527 18.3112 4.09668 17.5605 4.09668C16.8098 4.09668 16.2012 4.70527 16.2012 5.456C16.2012 6.20673 16.8098 6.81532 17.5605 6.81532Z" fill="#B9A974"/>
<path d="M22.2603 4.07378C21.9684 3.31995 21.5223 2.63538 20.9506 2.06388C20.3788 1.49238 19.6941 1.04655 18.9401 0.754924C18.0579 0.42374 17.1258 0.244663 16.1837 0.225319C14.9694 0.172358 14.5848 0.157227 11.5055 0.157227C8.42623 0.157227 8.03154 0.157226 6.82732 0.225319C5.88587 0.243674 4.95448 0.422788 4.07338 0.754924C3.31924 1.04621 2.63432 1.49192 2.06256 2.06346C1.4908 2.63501 1.04483 3.31976 0.753255 4.07378C0.422006 4.95597 0.243339 5.88811 0.224911 6.83025C0.170689 8.0433 0.154297 8.42789 0.154297 11.5084C0.154297 14.5877 0.154297 14.9799 0.224911 16.1866C0.243825 17.1298 0.421621 18.0604 0.753255 18.9443C1.04564 19.6981 1.49205 20.3826 2.06395 20.954C2.63585 21.5255 3.32066 21.9714 4.07464 22.2632C4.95408 22.6077 5.88585 22.7996 6.82984 22.8306C8.04415 22.8836 8.42875 22.9 11.508 22.9C14.5873 22.9 14.982 22.9 16.1862 22.8306C17.1283 22.8115 18.0603 22.6328 18.9427 22.3023C19.6964 22.01 20.381 21.5638 20.9526 20.9921C21.5243 20.4205 21.9705 19.7359 22.2628 18.9822C22.5944 18.0995 22.7722 17.1689 22.7911 16.2257C22.8454 15.0127 22.8617 14.6281 22.8617 11.5475C22.8617 8.46698 22.8617 8.07609 22.7911 6.86934C22.7765 5.91387 22.5969 4.96812 22.2603 4.07378ZM20.7244 16.0933C20.7163 16.82 20.5836 17.5399 20.3323 18.2218C20.1429 18.7122 19.853 19.1574 19.4812 19.529C19.1094 19.9006 18.6639 20.1902 18.1735 20.3793C17.4992 20.6296 16.7869 20.7622 16.0677 20.7715C14.8698 20.827 14.5318 20.8408 11.4601 20.8408C8.38588 20.8408 8.07189 20.8408 6.85128 20.7715C6.13244 20.7627 5.4205 20.63 4.74673 20.3793C4.25456 20.1914 3.80731 19.9023 3.43393 19.5306C3.06054 19.159 2.76933 18.7131 2.57913 18.2218C2.33128 17.5473 2.19871 16.8358 2.18697 16.1173C2.13275 14.9193 2.12014 14.5814 2.12014 11.5097C2.12014 8.43672 2.12014 8.12274 2.18697 6.90087C2.19512 6.17458 2.32777 5.45507 2.57913 4.77362C2.96373 3.77872 3.75183 2.99566 4.74673 2.61485C5.42083 2.36535 6.13256 2.23273 6.85128 2.22269C8.05046 2.16847 8.38714 2.15333 11.4601 2.15333C14.5331 2.15333 14.8483 2.15333 16.0677 2.22269C16.7869 2.23134 17.4993 2.364 18.1735 2.61485C18.6639 2.80434 19.1093 3.09427 19.4811 3.46604C19.8528 3.8378 20.1428 4.28319 20.3323 4.77362C20.5801 5.44817 20.7127 6.15962 20.7244 6.87817C20.7786 8.07735 20.7925 8.41402 20.7925 11.487C20.7925 14.5587 20.7925 14.8891 20.7383 16.0946H20.7244V16.0933Z" fill="#B9A974"/>
</g>
<defs>
<clipPath id="clip0_66_3130">
<rect width="23" height="23" fill="white"/>
</clipPath>
</defs>
</svg>
