<svg width="25" height="25" viewBox="0 0 25 25" fill="none" xmlns="http://www.w3.org/2000/svg">
<path d="M5.19128 7.49681C6.45003 7.49681 7.47044 6.47639 7.47044 5.21764C7.47044 3.95889 6.45003 2.93848 5.19128 2.93848C3.93253 2.93848 2.91211 3.95889 2.91211 5.21764C2.91211 6.47639 3.93253 7.49681 5.19128 7.49681Z" fill="#B9A974"/>
<path d="M9.62253 9.22363V21.8684H13.5486V15.6153C13.5486 13.9653 13.859 12.3674 15.9048 12.3674C17.9225 12.3674 17.9475 14.2538 17.9475 15.7195V21.8695H21.8757V14.9351C21.8757 11.5288 21.1423 8.91113 17.1611 8.91113C15.2496 8.91113 13.9684 9.96009 13.4444 10.9528H13.3913V9.22363H9.62253V9.22363ZM3.22461 9.22363H7.1569V21.8684H3.22461V9.22363Z" fill="#B9A974"/>
</svg>
