<svg width="45" height="52" viewBox="0 0 45 52" fill="none" xmlns="http://www.w3.org/2000/svg">
<path d="M22.5002 30.4667C30.8883 30.4667 37.6889 23.6461 37.6889 15.2334C37.6889 6.8187 30.8883 0 22.5002 0C14.1112 0 7.31152 6.81969 7.31152 15.2334C7.31152 23.6461 14.1112 30.4667 22.5002 30.4667ZM22.5002 2.4073C27.0701 2.4073 30.9444 4.56359 32.3111 7.55294H27.8476C27.1972 7.55294 26.5312 7.98578 26.2641 8.5797L24.666 12.1432L22.6953 5.55675C22.4648 4.78594 21.8696 4.69008 21.6923 4.67921C21.5129 4.66834 20.9129 4.69008 20.5877 5.42531L19.0349 8.95226L18.5294 7.25846C18.3836 6.76632 18.0259 6.43725 17.5736 6.37598C17.1411 6.31668 16.7253 6.52026 16.4533 6.92049L16.0217 7.46895L15.9794 7.52626C15.9656 7.53713 15.9449 7.548 15.9291 7.55393H12.6864C14.056 4.56359 17.9303 2.4073 22.5002 2.4073ZM12.1859 9.42562H15.9626C16.3607 9.42562 16.7775 9.27145 17.1076 9.01946L17.8239 11.4218C18.0545 12.1926 18.6496 12.2885 18.827 12.3003C19.0043 12.3102 19.6063 12.2905 19.9305 11.5542L21.4853 8.02432L23.4491 14.5861C23.6787 15.3539 24.2728 15.4518 24.4502 15.4636C24.4659 15.4646 24.4866 15.4646 24.5103 15.4646C24.7359 15.4646 25.2591 15.3875 25.5567 14.7244L27.9343 9.42562H32.8165C32.8313 9.59164 32.8431 9.75865 32.8431 9.92763C32.8431 14.0821 28.2131 17.448 22.5022 17.448C16.7913 17.448 12.1613 14.0811 12.1613 9.92664C12.1603 9.75963 12.1701 9.59164 12.1859 9.42562Z" fill="#B9A974"/>
<path d="M23.1954 41.7788L22.5007 42.4765L21.8061 41.7788C20.4946 40.4645 18.3683 40.4645 17.0588 41.7788C15.7473 43.0942 15.7473 45.2257 17.0588 46.5401L22.5017 52L27.9446 46.5401C29.2551 45.2257 29.2551 43.0932 27.9446 41.7788C26.6312 40.4645 24.5068 40.4645 23.1954 41.7788Z" fill="#B9A974"/>
<path d="M32.5837 28.6741C29.7716 30.8027 26.2856 32.0795 22.5 32.0795C18.7144 32.0795 15.2283 30.8017 12.4172 28.6741C5.65986 31.2375 -3.04741 36.5768 1.05743 40.6938C3.79859 43.443 9.17351 45.1971 15.2756 45.959C15.0342 45.3977 14.9061 44.7889 14.9061 44.1604C14.9061 42.9479 15.3771 41.8085 16.2314 40.9517C17.0856 40.0949 18.2227 39.6225 19.4307 39.6225C20.5786 39.6225 21.6624 40.0485 22.5 40.8262C23.3375 40.0485 24.4203 39.6225 25.5682 39.6225C26.7762 39.6225 27.9133 40.0939 28.7676 40.9517C29.6228 41.8085 30.0928 42.9479 30.0928 44.1604C30.0928 44.7899 29.9647 45.3987 29.7243 45.959C35.8274 45.1981 41.2013 43.443 43.9425 40.6938C48.0473 36.5778 39.341 31.2375 32.5837 28.6741Z" fill="#B9A974"/>
</svg>
