<svg width="59" height="53" viewBox="0 0 59 53" fill="none" xmlns="http://www.w3.org/2000/svg">
<path d="M31.1506 36.9283C30.1577 35.1598 30.1577 33.0253 31.2126 31.2567C24.9449 26.9267 19.0496 30.2199 16.2571 32.0495C15.8227 32.3544 15.2021 31.9275 15.3262 31.4396C15.7606 29.5491 16.5673 26.2559 17.4361 23.0846C18.7393 18.3887 21.2216 12.1072 23.7659 11.8633C27.179 11.5584 29.3509 10.7046 31.647 10.7046C34.4396 10.7046 35.8669 9.78977 35.8669 8.50907C35.8669 7.22838 34.6878 7.47232 33.9431 7.10641C33.5087 6.86246 35.6186 5.21585 36.3013 3.7522C36.9839 2.28855 32.0194 0.580949 28.9786 0.0930648C25.9999 -0.39482 24.7588 1.12982 23.7659 2.4715C22.835 3.7522 18.8014 9.05794 11.8511 15.6444C6.70148 20.5831 2.35754 29.67 0.495845 34.0609C-0.310888 35.9515 -0.124719 38.086 0.992296 39.7326C6.70148 47.9656 25.0081 48.7585 31.3999 47.4778C32.9513 48.3316 35.2474 49.0634 37.7917 49.3683L38.4123 39.9156H36.3024C34.1304 39.8546 32.2055 38.7568 31.1506 36.9283Z" fill="#B9A974"/>
<path d="M57.0277 26.8046H50.8221L51.6909 12.6559C51.815 10.5824 49.0845 9.72864 47.9675 11.4972L34.5633 33.085C33.7566 34.4267 34.6874 36.0733 36.3009 36.0733H42.5065L41.6377 50.222C41.5136 52.2955 44.2441 53.1493 45.3611 51.3807L58.7032 29.7907C59.51 28.4501 58.5791 26.8035 57.0277 26.8046Z" fill="#B9A974"/>
</svg>
