<svg width="38" height="34" viewBox="0 0 38 34" fill="none" xmlns="http://www.w3.org/2000/svg">
<path d="M34.2001 33.9973C35.2079 33.9973 36.1744 33.6048 36.887 32.906C37.5997 32.2072 38 31.2595 38 30.2713V21.1724C38 20.1843 37.5997 19.2365 36.887 18.5378C36.1744 17.839 35.2079 17.4465 34.2001 17.4465H28.9258C28.9258 16.1386 29.0056 14.8271 29.1614 13.5193C29.3969 12.1332 29.7921 10.8999 30.3393 9.82307C30.8903 8.74254 31.5971 7.89674 32.4635 7.27822C33.3261 6.58519 34.4243 6.23867 35.7618 6.23867V0.463379C33.5617 0.463379 31.6389 0.925402 29.9859 1.84945C28.3474 2.76413 26.9386 4.02711 25.863 5.54563C24.7835 7.21978 23.9879 9.05439 23.507 10.9781C23.0225 13.1011 22.7854 15.2711 22.8003 17.4465V30.2713C22.8003 31.2595 23.2006 32.2072 23.9132 32.906C24.6259 33.6048 25.5924 33.9973 26.6002 33.9973H34.2001ZM11.4005 33.9973C12.4083 33.9973 13.3748 33.6048 14.0874 32.906C14.8 32.2072 15.2004 31.2595 15.2004 30.2713V21.1724C15.2004 20.1843 14.8 19.2365 14.0874 18.5378C13.3748 17.839 12.4083 17.4465 11.4005 17.4465H6.12615C6.12615 16.1386 6.20595 14.8271 6.36175 13.5193C6.59734 12.1332 6.99254 10.8999 7.53973 9.82307C8.09072 8.74254 8.79751 7.89674 9.66389 7.27822C10.5265 6.58519 11.6247 6.23867 12.9622 6.23867V0.463379C10.7621 0.463379 8.8393 0.925402 7.18633 1.84945C5.54775 2.76413 4.13895 4.02711 3.06341 5.54563C1.98394 7.21978 1.18831 9.05439 0.707447 10.9781C0.222902 13.1011 -0.0142139 15.2711 0.000658446 17.4465V30.2713C0.000658446 31.2595 0.401007 32.2072 1.11363 32.906C1.82626 33.6048 2.79279 33.9973 3.80059 33.9973H11.4005Z" fill="#B9A974"/>
</svg>
