<svg width="38" height="34" viewBox="0 0 38 34" fill="none" xmlns="http://www.w3.org/2000/svg">
<path d="M34.2001 33.7844C35.2079 33.7844 36.1744 33.3919 36.887 32.6931C37.5997 31.9943 38 31.0466 38 30.0584V20.9596C38 19.9714 37.5997 19.0236 36.887 18.3249C36.1744 17.6261 35.2079 17.2336 34.2001 17.2336H28.9258C28.9258 15.9257 29.0056 14.6142 29.1614 13.3064C29.3969 11.9203 29.7921 10.687 30.3393 9.61018C30.8903 8.52964 31.5971 7.68384 32.4635 7.06533C33.3261 6.37229 34.4243 6.02578 35.7618 6.02578V0.250488C33.5617 0.250488 31.6389 0.712511 29.9859 1.63656C28.3474 2.55124 26.9386 3.81422 25.863 5.33274C24.7835 7.00689 23.9879 8.8415 23.507 10.7652C23.0225 12.8882 22.7854 15.0582 22.8003 17.2336V30.0584C22.8003 31.0466 23.2006 31.9943 23.9132 32.6931C24.6259 33.3919 25.5924 33.7844 26.6002 33.7844H34.2001ZM11.4005 33.7844C12.4083 33.7844 13.3748 33.3919 14.0874 32.6931C14.8 31.9943 15.2004 31.0466 15.2004 30.0584V20.9596C15.2004 19.9714 14.8 19.0236 14.0874 18.3249C13.3748 17.6261 12.4083 17.2336 11.4005 17.2336H6.12615C6.12615 15.9257 6.20595 14.6142 6.36175 13.3064C6.59734 11.9203 6.99254 10.687 7.53973 9.61018C8.09072 8.52964 8.79751 7.68384 9.66389 7.06533C10.5265 6.37229 11.6247 6.02578 12.9622 6.02578V0.250488C10.7621 0.250488 8.8393 0.712511 7.18633 1.63656C5.54775 2.55124 4.13895 3.81422 3.06341 5.33274C1.98394 7.00689 1.18831 8.8415 0.707447 10.7652C0.222902 12.8882 -0.0142139 15.0582 0.000658446 17.2336V30.0584C0.000658446 31.0466 0.401007 31.9943 1.11363 32.6931C1.82626 33.3919 2.79279 33.7844 3.80059 33.7844H11.4005Z" fill="#D9D9D9"/>
</svg>
