<svg width="39" height="52" viewBox="0 0 39 52" fill="none" xmlns="http://www.w3.org/2000/svg">
<path d="M24.2981 17.3949H38.98L21.667 0V14.6578C21.667 16.1134 22.8389 17.3937 24.2981 17.3949Z" fill="#B9A974"/>
<path d="M10.1248 13.9881C11.4142 13.9881 12.6245 13.4878 13.536 12.5778C14.4476 11.6678 14.9487 10.4583 14.9487 9.17217C14.9487 7.88491 14.4476 6.67658 13.536 5.76656C12.6245 4.85654 11.4142 4.3551 10.1248 4.3551C8.83543 4.3551 7.62511 4.85538 6.71359 5.7654C5.80207 6.67542 5.2998 7.88491 5.2998 9.17101C5.2998 10.4583 5.80091 11.6666 6.71243 12.5766C7.62395 13.4866 8.83543 13.9881 10.1248 13.9881ZM10.1248 4.80315C12.5408 4.80315 14.4999 6.759 14.4999 9.17101C14.4999 11.583 12.5396 13.5389 10.1248 13.5389C7.70998 13.5389 5.74975 11.583 5.74975 9.17101C5.74975 6.759 7.70998 4.80315 10.1248 4.80315Z" fill="#B9A974"/>
<path d="M24.3052 18.6032C22.1171 18.6032 20.2813 16.8354 20.2813 14.6509V0.0905762H2.63689C1.16498 0.0905762 0 1.2223 0 2.69063V49.2642C0 50.7337 1.16498 52 2.63689 52H36.291C37.7629 52 39 50.7256 39 49.2642V18.6032H24.3052ZM3.93907 8.57327L4.4018 8.05906C4.59713 7.84432 4.67502 7.55182 4.60992 7.27208L4.46691 6.59653C4.36925 6.14848 4.62968 5.69927 5.06567 5.56347L5.72374 5.34873C5.99696 5.25703 6.21205 5.05042 6.29692 4.77649L6.51085 4.12067C6.65386 3.68539 7.09683 3.42538 7.54561 3.52289L8.22227 3.66566C8.50247 3.72369 8.79546 3.64592 9.01055 3.45788L9.52561 2.99591C9.86394 2.69063 10.3848 2.69063 10.7231 2.99591L11.2382 3.45788C11.4533 3.65289 11.7463 3.73066 12.0265 3.66566L12.7031 3.52289C13.1519 3.42538 13.6019 3.68539 13.7379 4.12067L13.953 4.77765C14.0448 5.05042 14.2518 5.26516 14.5262 5.34989L15.1842 5.56463C15.6202 5.7074 15.8807 6.14964 15.783 6.59769L15.64 7.27324C15.5819 7.55298 15.6598 7.84548 15.8481 8.06022L16.3108 8.57443C16.6166 8.9122 16.6166 9.43221 16.3108 9.77115L15.8481 10.2854C15.6528 10.5001 15.5749 10.7926 15.64 11.0723L15.783 11.7479C15.8807 12.1959 15.6202 12.6451 15.1842 12.781L14.5262 12.9957C14.253 13.0874 14.0379 13.294 13.953 13.5679L13.7379 14.2249C13.5949 14.6602 13.1519 14.9202 12.7031 14.8227L12.0265 14.6799C11.7463 14.6219 11.4533 14.6997 11.2382 14.8877L10.7231 15.3497C10.3848 15.6549 9.86394 15.6549 9.52561 15.3497L9.01055 14.8877C8.79546 14.6927 8.50247 14.6149 8.22227 14.6799L7.54561 14.8227C7.09683 14.9202 6.64688 14.6602 6.51085 14.2249L6.29576 13.5679C6.20391 13.2952 5.99696 13.0804 5.72257 12.9957L5.06451 12.781C4.62852 12.6382 4.36808 12.1959 4.46575 11.7479L4.60875 11.0723C4.66688 10.7926 4.58899 10.5001 4.40064 10.2854L3.9379 9.77115C3.62631 9.43105 3.62631 8.91104 3.93907 8.57327ZM16.4852 20.6833L14.2913 19.5724L13.3217 21.8278L11.1475 15.8674C11.1533 15.8616 11.1603 15.8546 11.1731 15.8476L11.6881 15.3857C11.7277 15.3462 11.78 15.3276 11.8381 15.3276C11.8509 15.3276 11.8707 15.3276 11.8835 15.3334L12.5601 15.4832C12.6706 15.5087 12.781 15.5226 12.8926 15.5226C13.4914 15.5226 14.032 15.1779 14.2925 14.6521L16.4852 20.6833ZM5.96324 14.6509C6.22368 15.1779 6.76431 15.5157 7.36308 15.5157C7.47353 15.5157 7.58398 15.5029 7.69559 15.4832L8.37226 15.3404C8.38505 15.3346 8.40481 15.3346 8.4176 15.3346C8.46992 15.3346 8.52108 15.3543 8.56758 15.3926L9.08264 15.8546C9.08845 15.8604 9.09543 15.8674 9.10822 15.8743L6.93406 21.8347L5.9644 19.5794L3.77048 20.6902L5.96324 14.6509ZM33.5367 46.6386H5.39005C4.79129 46.6386 4.30879 46.1116 4.30879 45.5138C4.30879 44.916 4.79013 44.3891 5.39005 44.3891H33.5425C34.1413 44.3891 34.6238 44.916 34.6238 45.5138C34.6238 46.1116 34.1355 46.6386 33.5367 46.6386ZM33.5367 40.0607H5.39005C4.79129 40.0607 4.30879 39.6184 4.30879 39.0206C4.30879 38.4229 4.79013 37.9806 5.39005 37.9806H33.5425C34.1413 37.9806 34.6238 38.4229 34.6238 39.0206C34.6238 39.6184 34.1355 40.0607 33.5367 40.0607ZM33.5367 33.658H5.39005C4.79129 33.658 4.30879 33.1311 4.30879 32.5333C4.30879 31.9355 4.79013 31.4085 5.39005 31.4085H33.5425C34.1413 31.4085 34.6238 31.9355 34.6238 32.5333C34.6238 33.1311 34.1355 33.658 33.5367 33.658ZM33.5367 27.0859H5.39005C4.79129 27.0859 4.30879 26.6437 4.30879 26.0459C4.30879 25.4481 4.79013 25.0059 5.39005 25.0059H33.5425C34.1413 25.0059 34.6238 25.4481 34.6238 26.0459C34.6238 26.6437 34.1355 27.0859 33.5367 27.0859Z" fill="#B9A974"/>
<path d="M8.30732 11.9602L10.1234 11.0107L11.9394 11.9602L11.5941 9.94518L13.0661 8.51515L11.0349 8.21684L10.1234 6.38403L9.21768 8.21684L7.18652 8.51515L8.65844 9.94518L8.30732 11.9602Z" fill="#B9A974"/>
</svg>
